<mxfile host="app.diagrams.net" modified="2024-03-22T04:13:34.403Z" agent="Mozilla/5.0 (Macintosh; Intel Mac OS X 10_15_7) AppleWebKit/537.36 (KHTML, like Gecko) Chrome/123.0.0.0 Safari/537.36" etag="hZ-amf3oQ2vVW4aZB4qy" version="24.0.7" type="device">
  <diagram name="페이지-1" id="1_V0yb5FZha0vVj4fSuq">
    <mxGraphModel dx="2618" dy="1228" grid="1" gridSize="10" guides="1" tooltips="1" connect="1" arrows="1" fold="1" page="1" pageScale="1" pageWidth="827" pageHeight="1169" math="0" shadow="0">
      <root>
        <mxCell id="0" />
        <mxCell id="1" parent="0" />
        <mxCell id="4U4nR3mQbKCSGT5FO5ts-1" value="" style="rounded=1;whiteSpace=wrap;html=1;" vertex="1" parent="1">
          <mxGeometry x="280" y="120" width="330" height="440" as="geometry" />
        </mxCell>
        <mxCell id="4U4nR3mQbKCSGT5FO5ts-2" value="Socket" style="rounded=1;whiteSpace=wrap;html=1;" vertex="1" parent="1">
          <mxGeometry x="540" y="290" width="120" height="100" as="geometry" />
        </mxCell>
        <mxCell id="4U4nR3mQbKCSGT5FO5ts-3" value="" style="endArrow=classic;html=1;rounded=0;exitX=1;exitY=0.25;exitDx=0;exitDy=0;" edge="1" parent="1" source="4U4nR3mQbKCSGT5FO5ts-2">
          <mxGeometry width="50" height="50" relative="1" as="geometry">
            <mxPoint x="670" y="410" as="sourcePoint" />
            <mxPoint x="740" y="315" as="targetPoint" />
          </mxGeometry>
        </mxCell>
        <mxCell id="4U4nR3mQbKCSGT5FO5ts-4" value="" style="endArrow=classic;html=1;rounded=0;entryX=1;entryY=0.75;entryDx=0;entryDy=0;" edge="1" parent="1" target="4U4nR3mQbKCSGT5FO5ts-2">
          <mxGeometry width="50" height="50" relative="1" as="geometry">
            <mxPoint x="740" y="365" as="sourcePoint" />
            <mxPoint x="750" y="325" as="targetPoint" />
          </mxGeometry>
        </mxCell>
        <mxCell id="4U4nR3mQbKCSGT5FO5ts-5" value="Receiver" style="ellipse;whiteSpace=wrap;html=1;aspect=fixed;" vertex="1" parent="1">
          <mxGeometry x="420" y="400" width="80" height="80" as="geometry" />
        </mxCell>
        <mxCell id="4U4nR3mQbKCSGT5FO5ts-6" value="Sender" style="ellipse;whiteSpace=wrap;html=1;aspect=fixed;" vertex="1" parent="1">
          <mxGeometry x="420" y="200" width="80" height="80" as="geometry" />
        </mxCell>
        <mxCell id="4U4nR3mQbKCSGT5FO5ts-21" value="" style="group" vertex="1" connectable="0" parent="1">
          <mxGeometry x="260" y="210" width="120" height="60" as="geometry" />
        </mxCell>
        <mxCell id="4U4nR3mQbKCSGT5FO5ts-7" value="" style="rounded=0;whiteSpace=wrap;html=1;" vertex="1" parent="4U4nR3mQbKCSGT5FO5ts-21">
          <mxGeometry width="120" height="60" as="geometry" />
        </mxCell>
        <mxCell id="4U4nR3mQbKCSGT5FO5ts-8" value="" style="rounded=0;whiteSpace=wrap;html=1;" vertex="1" parent="4U4nR3mQbKCSGT5FO5ts-21">
          <mxGeometry width="20" height="60" as="geometry" />
        </mxCell>
        <mxCell id="4U4nR3mQbKCSGT5FO5ts-9" value="" style="rounded=0;whiteSpace=wrap;html=1;" vertex="1" parent="4U4nR3mQbKCSGT5FO5ts-21">
          <mxGeometry x="20" width="20" height="60" as="geometry" />
        </mxCell>
        <mxCell id="4U4nR3mQbKCSGT5FO5ts-10" value="" style="rounded=0;whiteSpace=wrap;html=1;" vertex="1" parent="4U4nR3mQbKCSGT5FO5ts-21">
          <mxGeometry x="40" width="20" height="60" as="geometry" />
        </mxCell>
        <mxCell id="4U4nR3mQbKCSGT5FO5ts-11" value="" style="rounded=0;whiteSpace=wrap;html=1;" vertex="1" parent="4U4nR3mQbKCSGT5FO5ts-21">
          <mxGeometry x="60" width="20" height="60" as="geometry" />
        </mxCell>
        <mxCell id="4U4nR3mQbKCSGT5FO5ts-12" value="" style="rounded=0;whiteSpace=wrap;html=1;" vertex="1" parent="4U4nR3mQbKCSGT5FO5ts-21">
          <mxGeometry x="80" width="20" height="60" as="geometry" />
        </mxCell>
        <mxCell id="4U4nR3mQbKCSGT5FO5ts-13" value="" style="rounded=0;whiteSpace=wrap;html=1;" vertex="1" parent="4U4nR3mQbKCSGT5FO5ts-21">
          <mxGeometry x="100" width="20" height="60" as="geometry" />
        </mxCell>
        <mxCell id="4U4nR3mQbKCSGT5FO5ts-22" value="" style="group" vertex="1" connectable="0" parent="1">
          <mxGeometry x="260" y="410" width="120" height="60" as="geometry" />
        </mxCell>
        <mxCell id="4U4nR3mQbKCSGT5FO5ts-23" value="" style="rounded=0;whiteSpace=wrap;html=1;" vertex="1" parent="4U4nR3mQbKCSGT5FO5ts-22">
          <mxGeometry width="120" height="60" as="geometry" />
        </mxCell>
        <mxCell id="4U4nR3mQbKCSGT5FO5ts-24" value="" style="rounded=0;whiteSpace=wrap;html=1;" vertex="1" parent="4U4nR3mQbKCSGT5FO5ts-22">
          <mxGeometry width="20" height="60" as="geometry" />
        </mxCell>
        <mxCell id="4U4nR3mQbKCSGT5FO5ts-25" value="" style="rounded=0;whiteSpace=wrap;html=1;" vertex="1" parent="4U4nR3mQbKCSGT5FO5ts-22">
          <mxGeometry x="20" width="20" height="60" as="geometry" />
        </mxCell>
        <mxCell id="4U4nR3mQbKCSGT5FO5ts-26" value="" style="rounded=0;whiteSpace=wrap;html=1;" vertex="1" parent="4U4nR3mQbKCSGT5FO5ts-22">
          <mxGeometry x="40" width="20" height="60" as="geometry" />
        </mxCell>
        <mxCell id="4U4nR3mQbKCSGT5FO5ts-27" value="" style="rounded=0;whiteSpace=wrap;html=1;" vertex="1" parent="4U4nR3mQbKCSGT5FO5ts-22">
          <mxGeometry x="60" width="20" height="60" as="geometry" />
        </mxCell>
        <mxCell id="4U4nR3mQbKCSGT5FO5ts-28" value="" style="rounded=0;whiteSpace=wrap;html=1;" vertex="1" parent="4U4nR3mQbKCSGT5FO5ts-22">
          <mxGeometry x="80" width="20" height="60" as="geometry" />
        </mxCell>
        <mxCell id="4U4nR3mQbKCSGT5FO5ts-29" value="" style="rounded=0;whiteSpace=wrap;html=1;" vertex="1" parent="4U4nR3mQbKCSGT5FO5ts-22">
          <mxGeometry x="100" width="20" height="60" as="geometry" />
        </mxCell>
        <mxCell id="4U4nR3mQbKCSGT5FO5ts-30" value="" style="endArrow=classic;html=1;rounded=0;exitX=1;exitY=0.5;exitDx=0;exitDy=0;entryX=0;entryY=0.5;entryDx=0;entryDy=0;" edge="1" parent="1" source="4U4nR3mQbKCSGT5FO5ts-40" target="4U4nR3mQbKCSGT5FO5ts-8">
          <mxGeometry width="50" height="50" relative="1" as="geometry">
            <mxPoint x="200" y="260" as="sourcePoint" />
            <mxPoint x="260" y="260" as="targetPoint" />
          </mxGeometry>
        </mxCell>
        <mxCell id="4U4nR3mQbKCSGT5FO5ts-31" value="" style="endArrow=classic;html=1;rounded=0;exitX=0;exitY=0.5;exitDx=0;exitDy=0;entryX=1;entryY=0.5;entryDx=0;entryDy=0;" edge="1" parent="1" source="4U4nR3mQbKCSGT5FO5ts-24" target="4U4nR3mQbKCSGT5FO5ts-46">
          <mxGeometry width="50" height="50" relative="1" as="geometry">
            <mxPoint x="160" y="400" as="sourcePoint" />
            <mxPoint x="200" y="390" as="targetPoint" />
          </mxGeometry>
        </mxCell>
        <mxCell id="4U4nR3mQbKCSGT5FO5ts-32" value="" style="endArrow=classic;html=1;rounded=0;exitX=1;exitY=0.5;exitDx=0;exitDy=0;entryX=0;entryY=0.5;entryDx=0;entryDy=0;" edge="1" parent="1" source="4U4nR3mQbKCSGT5FO5ts-13" target="4U4nR3mQbKCSGT5FO5ts-6">
          <mxGeometry width="50" height="50" relative="1" as="geometry">
            <mxPoint x="210" y="250" as="sourcePoint" />
            <mxPoint x="270" y="250" as="targetPoint" />
          </mxGeometry>
        </mxCell>
        <mxCell id="4U4nR3mQbKCSGT5FO5ts-33" value="" style="endArrow=classic;html=1;rounded=0;exitX=1;exitY=0.5;exitDx=0;exitDy=0;entryX=0;entryY=0;entryDx=0;entryDy=0;" edge="1" parent="1">
          <mxGeometry width="50" height="50" relative="1" as="geometry">
            <mxPoint x="500" y="250" as="sourcePoint" />
            <mxPoint x="540" y="300" as="targetPoint" />
          </mxGeometry>
        </mxCell>
        <mxCell id="4U4nR3mQbKCSGT5FO5ts-34" value="" style="endArrow=classic;html=1;rounded=0;entryX=1;entryY=0.5;entryDx=0;entryDy=0;exitX=0;exitY=1;exitDx=0;exitDy=0;" edge="1" parent="1" source="4U4nR3mQbKCSGT5FO5ts-2" target="4U4nR3mQbKCSGT5FO5ts-5">
          <mxGeometry width="50" height="50" relative="1" as="geometry">
            <mxPoint x="550" y="370" as="sourcePoint" />
            <mxPoint x="210" y="450" as="targetPoint" />
          </mxGeometry>
        </mxCell>
        <mxCell id="4U4nR3mQbKCSGT5FO5ts-35" value="" style="endArrow=classic;html=1;rounded=0;exitX=0;exitY=0.5;exitDx=0;exitDy=0;entryX=1;entryY=0.5;entryDx=0;entryDy=0;" edge="1" parent="1" source="4U4nR3mQbKCSGT5FO5ts-5" target="4U4nR3mQbKCSGT5FO5ts-29">
          <mxGeometry width="50" height="50" relative="1" as="geometry">
            <mxPoint x="550" y="415" as="sourcePoint" />
            <mxPoint x="510" y="450" as="targetPoint" />
          </mxGeometry>
        </mxCell>
        <mxCell id="4U4nR3mQbKCSGT5FO5ts-37" value="ReceiveQueue" style="text;html=1;align=center;verticalAlign=middle;whiteSpace=wrap;rounded=0;" vertex="1" parent="1">
          <mxGeometry x="275" y="390" width="90" height="30" as="geometry" />
        </mxCell>
        <mxCell id="4U4nR3mQbKCSGT5FO5ts-38" value="SendQueue" style="text;html=1;align=center;verticalAlign=middle;whiteSpace=wrap;rounded=0;" vertex="1" parent="1">
          <mxGeometry x="275" y="180" width="90" height="30" as="geometry" />
        </mxCell>
        <mxCell id="4U4nR3mQbKCSGT5FO5ts-39" value="NetCat" style="text;html=1;align=center;verticalAlign=middle;whiteSpace=wrap;rounded=0;" vertex="1" parent="1">
          <mxGeometry x="410" y="90" width="60" height="30" as="geometry" />
        </mxCell>
        <mxCell id="4U4nR3mQbKCSGT5FO5ts-40" value="inputAgent" style="rounded=1;whiteSpace=wrap;html=1;" vertex="1" parent="1">
          <mxGeometry x="40" y="160" width="160" height="160" as="geometry" />
        </mxCell>
        <mxCell id="4U4nR3mQbKCSGT5FO5ts-46" value="outputAgent" style="rounded=1;whiteSpace=wrap;html=1;" vertex="1" parent="1">
          <mxGeometry x="40" y="360" width="160" height="160" as="geometry" />
        </mxCell>
        <mxCell id="4U4nR3mQbKCSGT5FO5ts-50" value="keyboard" style="rounded=0;whiteSpace=wrap;html=1;" vertex="1" parent="1">
          <mxGeometry x="-160" y="210" width="120" height="60" as="geometry" />
        </mxCell>
        <mxCell id="4U4nR3mQbKCSGT5FO5ts-51" value="" style="endArrow=classic;html=1;rounded=0;exitX=1;exitY=0.5;exitDx=0;exitDy=0;entryX=0;entryY=0.5;entryDx=0;entryDy=0;" edge="1" parent="1" source="4U4nR3mQbKCSGT5FO5ts-50">
          <mxGeometry width="50" height="50" relative="1" as="geometry">
            <mxPoint x="220" y="80" as="sourcePoint" />
            <mxPoint x="40" y="240" as="targetPoint" />
          </mxGeometry>
        </mxCell>
        <mxCell id="4U4nR3mQbKCSGT5FO5ts-52" value="" style="triangle;whiteSpace=wrap;html=1;rotation=-90;" vertex="1" parent="1">
          <mxGeometry x="-130" y="445" width="60" height="80" as="geometry" />
        </mxCell>
        <mxCell id="4U4nR3mQbKCSGT5FO5ts-53" value="monitor" style="rounded=0;whiteSpace=wrap;html=1;" vertex="1" parent="1">
          <mxGeometry x="-160" y="410" width="120" height="60" as="geometry" />
        </mxCell>
        <mxCell id="4U4nR3mQbKCSGT5FO5ts-54" value="" style="endArrow=classic;html=1;rounded=0;exitX=0;exitY=0.5;exitDx=0;exitDy=0;entryX=1;entryY=0.5;entryDx=0;entryDy=0;" edge="1" parent="1" target="4U4nR3mQbKCSGT5FO5ts-53">
          <mxGeometry width="50" height="50" relative="1" as="geometry">
            <mxPoint x="40" y="440" as="sourcePoint" />
            <mxPoint x="270" y="470" as="targetPoint" />
          </mxGeometry>
        </mxCell>
        <mxCell id="4U4nR3mQbKCSGT5FO5ts-55" value="" style="rounded=1;whiteSpace=wrap;html=1;" vertex="1" parent="1">
          <mxGeometry x="260" y="630" width="330" height="440" as="geometry" />
        </mxCell>
        <mxCell id="4U4nR3mQbKCSGT5FO5ts-56" value="Socket" style="rounded=1;whiteSpace=wrap;html=1;" vertex="1" parent="1">
          <mxGeometry x="520" y="800" width="120" height="100" as="geometry" />
        </mxCell>
        <mxCell id="4U4nR3mQbKCSGT5FO5ts-57" value="" style="endArrow=classic;html=1;rounded=0;exitX=1;exitY=0.25;exitDx=0;exitDy=0;" edge="1" parent="1" source="4U4nR3mQbKCSGT5FO5ts-56">
          <mxGeometry width="50" height="50" relative="1" as="geometry">
            <mxPoint x="650" y="920" as="sourcePoint" />
            <mxPoint x="720" y="825" as="targetPoint" />
          </mxGeometry>
        </mxCell>
        <mxCell id="4U4nR3mQbKCSGT5FO5ts-58" value="" style="endArrow=classic;html=1;rounded=0;entryX=1;entryY=0.75;entryDx=0;entryDy=0;" edge="1" parent="1" target="4U4nR3mQbKCSGT5FO5ts-56">
          <mxGeometry width="50" height="50" relative="1" as="geometry">
            <mxPoint x="720" y="875" as="sourcePoint" />
            <mxPoint x="730" y="835" as="targetPoint" />
          </mxGeometry>
        </mxCell>
        <mxCell id="4U4nR3mQbKCSGT5FO5ts-59" value="Receiver" style="ellipse;whiteSpace=wrap;html=1;aspect=fixed;" vertex="1" parent="1">
          <mxGeometry x="400" y="910" width="80" height="80" as="geometry" />
        </mxCell>
        <mxCell id="4U4nR3mQbKCSGT5FO5ts-60" value="Sender" style="ellipse;whiteSpace=wrap;html=1;aspect=fixed;" vertex="1" parent="1">
          <mxGeometry x="400" y="710" width="80" height="80" as="geometry" />
        </mxCell>
        <mxCell id="4U4nR3mQbKCSGT5FO5ts-61" value="" style="group" vertex="1" connectable="0" parent="1">
          <mxGeometry x="240" y="720" width="120" height="60" as="geometry" />
        </mxCell>
        <mxCell id="4U4nR3mQbKCSGT5FO5ts-62" value="" style="rounded=0;whiteSpace=wrap;html=1;" vertex="1" parent="4U4nR3mQbKCSGT5FO5ts-61">
          <mxGeometry width="120" height="60" as="geometry" />
        </mxCell>
        <mxCell id="4U4nR3mQbKCSGT5FO5ts-63" value="" style="rounded=0;whiteSpace=wrap;html=1;" vertex="1" parent="4U4nR3mQbKCSGT5FO5ts-61">
          <mxGeometry width="20" height="60" as="geometry" />
        </mxCell>
        <mxCell id="4U4nR3mQbKCSGT5FO5ts-64" value="" style="rounded=0;whiteSpace=wrap;html=1;" vertex="1" parent="4U4nR3mQbKCSGT5FO5ts-61">
          <mxGeometry x="20" width="20" height="60" as="geometry" />
        </mxCell>
        <mxCell id="4U4nR3mQbKCSGT5FO5ts-65" value="" style="rounded=0;whiteSpace=wrap;html=1;" vertex="1" parent="4U4nR3mQbKCSGT5FO5ts-61">
          <mxGeometry x="40" width="20" height="60" as="geometry" />
        </mxCell>
        <mxCell id="4U4nR3mQbKCSGT5FO5ts-66" value="" style="rounded=0;whiteSpace=wrap;html=1;" vertex="1" parent="4U4nR3mQbKCSGT5FO5ts-61">
          <mxGeometry x="60" width="20" height="60" as="geometry" />
        </mxCell>
        <mxCell id="4U4nR3mQbKCSGT5FO5ts-67" value="" style="rounded=0;whiteSpace=wrap;html=1;" vertex="1" parent="4U4nR3mQbKCSGT5FO5ts-61">
          <mxGeometry x="80" width="20" height="60" as="geometry" />
        </mxCell>
        <mxCell id="4U4nR3mQbKCSGT5FO5ts-68" value="" style="rounded=0;whiteSpace=wrap;html=1;" vertex="1" parent="4U4nR3mQbKCSGT5FO5ts-61">
          <mxGeometry x="100" width="20" height="60" as="geometry" />
        </mxCell>
        <mxCell id="4U4nR3mQbKCSGT5FO5ts-69" value="" style="group" vertex="1" connectable="0" parent="1">
          <mxGeometry x="240" y="920" width="120" height="60" as="geometry" />
        </mxCell>
        <mxCell id="4U4nR3mQbKCSGT5FO5ts-70" value="" style="rounded=0;whiteSpace=wrap;html=1;" vertex="1" parent="4U4nR3mQbKCSGT5FO5ts-69">
          <mxGeometry width="120" height="60" as="geometry" />
        </mxCell>
        <mxCell id="4U4nR3mQbKCSGT5FO5ts-71" value="" style="rounded=0;whiteSpace=wrap;html=1;" vertex="1" parent="4U4nR3mQbKCSGT5FO5ts-69">
          <mxGeometry width="20" height="60" as="geometry" />
        </mxCell>
        <mxCell id="4U4nR3mQbKCSGT5FO5ts-72" value="" style="rounded=0;whiteSpace=wrap;html=1;" vertex="1" parent="4U4nR3mQbKCSGT5FO5ts-69">
          <mxGeometry x="20" width="20" height="60" as="geometry" />
        </mxCell>
        <mxCell id="4U4nR3mQbKCSGT5FO5ts-73" value="" style="rounded=0;whiteSpace=wrap;html=1;" vertex="1" parent="4U4nR3mQbKCSGT5FO5ts-69">
          <mxGeometry x="40" width="20" height="60" as="geometry" />
        </mxCell>
        <mxCell id="4U4nR3mQbKCSGT5FO5ts-74" value="" style="rounded=0;whiteSpace=wrap;html=1;" vertex="1" parent="4U4nR3mQbKCSGT5FO5ts-69">
          <mxGeometry x="60" width="20" height="60" as="geometry" />
        </mxCell>
        <mxCell id="4U4nR3mQbKCSGT5FO5ts-75" value="" style="rounded=0;whiteSpace=wrap;html=1;" vertex="1" parent="4U4nR3mQbKCSGT5FO5ts-69">
          <mxGeometry x="80" width="20" height="60" as="geometry" />
        </mxCell>
        <mxCell id="4U4nR3mQbKCSGT5FO5ts-76" value="" style="rounded=0;whiteSpace=wrap;html=1;" vertex="1" parent="4U4nR3mQbKCSGT5FO5ts-69">
          <mxGeometry x="100" width="20" height="60" as="geometry" />
        </mxCell>
        <mxCell id="4U4nR3mQbKCSGT5FO5ts-77" value="" style="endArrow=classic;html=1;rounded=0;exitX=1;exitY=0.5;exitDx=0;exitDy=0;entryX=0;entryY=0.5;entryDx=0;entryDy=0;" edge="1" parent="1" source="4U4nR3mQbKCSGT5FO5ts-86" target="4U4nR3mQbKCSGT5FO5ts-63">
          <mxGeometry width="50" height="50" relative="1" as="geometry">
            <mxPoint x="180" y="770" as="sourcePoint" />
            <mxPoint x="240" y="770" as="targetPoint" />
          </mxGeometry>
        </mxCell>
        <mxCell id="4U4nR3mQbKCSGT5FO5ts-78" value="" style="endArrow=classic;html=1;rounded=0;exitX=0;exitY=0.5;exitDx=0;exitDy=0;entryX=1;entryY=0.5;entryDx=0;entryDy=0;" edge="1" parent="1" source="4U4nR3mQbKCSGT5FO5ts-71" target="4U4nR3mQbKCSGT5FO5ts-87">
          <mxGeometry width="50" height="50" relative="1" as="geometry">
            <mxPoint x="140" y="910" as="sourcePoint" />
            <mxPoint x="180" y="900" as="targetPoint" />
          </mxGeometry>
        </mxCell>
        <mxCell id="4U4nR3mQbKCSGT5FO5ts-79" value="" style="endArrow=classic;html=1;rounded=0;exitX=1;exitY=0.5;exitDx=0;exitDy=0;entryX=0;entryY=0.5;entryDx=0;entryDy=0;" edge="1" parent="1" source="4U4nR3mQbKCSGT5FO5ts-68" target="4U4nR3mQbKCSGT5FO5ts-60">
          <mxGeometry width="50" height="50" relative="1" as="geometry">
            <mxPoint x="190" y="760" as="sourcePoint" />
            <mxPoint x="250" y="760" as="targetPoint" />
          </mxGeometry>
        </mxCell>
        <mxCell id="4U4nR3mQbKCSGT5FO5ts-80" value="" style="endArrow=classic;html=1;rounded=0;exitX=1;exitY=0.5;exitDx=0;exitDy=0;entryX=0;entryY=0;entryDx=0;entryDy=0;" edge="1" parent="1">
          <mxGeometry width="50" height="50" relative="1" as="geometry">
            <mxPoint x="480" y="760" as="sourcePoint" />
            <mxPoint x="520" y="810" as="targetPoint" />
          </mxGeometry>
        </mxCell>
        <mxCell id="4U4nR3mQbKCSGT5FO5ts-81" value="" style="endArrow=classic;html=1;rounded=0;entryX=1;entryY=0.5;entryDx=0;entryDy=0;exitX=0;exitY=1;exitDx=0;exitDy=0;" edge="1" parent="1" source="4U4nR3mQbKCSGT5FO5ts-56" target="4U4nR3mQbKCSGT5FO5ts-59">
          <mxGeometry width="50" height="50" relative="1" as="geometry">
            <mxPoint x="530" y="880" as="sourcePoint" />
            <mxPoint x="190" y="960" as="targetPoint" />
          </mxGeometry>
        </mxCell>
        <mxCell id="4U4nR3mQbKCSGT5FO5ts-82" value="" style="endArrow=classic;html=1;rounded=0;exitX=0;exitY=0.5;exitDx=0;exitDy=0;entryX=1;entryY=0.5;entryDx=0;entryDy=0;" edge="1" parent="1" source="4U4nR3mQbKCSGT5FO5ts-59" target="4U4nR3mQbKCSGT5FO5ts-76">
          <mxGeometry width="50" height="50" relative="1" as="geometry">
            <mxPoint x="530" y="925" as="sourcePoint" />
            <mxPoint x="490" y="960" as="targetPoint" />
          </mxGeometry>
        </mxCell>
        <mxCell id="4U4nR3mQbKCSGT5FO5ts-83" value="ReceiveQueue" style="text;html=1;align=center;verticalAlign=middle;whiteSpace=wrap;rounded=0;" vertex="1" parent="1">
          <mxGeometry x="255" y="900" width="90" height="30" as="geometry" />
        </mxCell>
        <mxCell id="4U4nR3mQbKCSGT5FO5ts-84" value="SendQueue" style="text;html=1;align=center;verticalAlign=middle;whiteSpace=wrap;rounded=0;" vertex="1" parent="1">
          <mxGeometry x="255" y="690" width="90" height="30" as="geometry" />
        </mxCell>
        <mxCell id="4U4nR3mQbKCSGT5FO5ts-85" value="NetCat" style="text;html=1;align=center;verticalAlign=middle;whiteSpace=wrap;rounded=0;" vertex="1" parent="1">
          <mxGeometry x="390" y="600" width="60" height="30" as="geometry" />
        </mxCell>
        <mxCell id="4U4nR3mQbKCSGT5FO5ts-86" value="inputAgent" style="rounded=1;whiteSpace=wrap;html=1;" vertex="1" parent="1">
          <mxGeometry x="-160" y="790" width="160" height="160" as="geometry" />
        </mxCell>
        <mxCell id="4U4nR3mQbKCSGT5FO5ts-87" value="outputAgent" style="rounded=1;whiteSpace=wrap;html=1;" vertex="1" parent="1">
          <mxGeometry x="-160" y="1257.5" width="160" height="160" as="geometry" />
        </mxCell>
        <mxCell id="4U4nR3mQbKCSGT5FO5ts-88" value="keyboard" style="rounded=0;whiteSpace=wrap;html=1;" vertex="1" parent="1">
          <mxGeometry x="-360" y="840" width="120" height="60" as="geometry" />
        </mxCell>
        <mxCell id="4U4nR3mQbKCSGT5FO5ts-89" value="" style="endArrow=classic;html=1;rounded=0;exitX=1;exitY=0.5;exitDx=0;exitDy=0;entryX=0;entryY=0.5;entryDx=0;entryDy=0;" edge="1" parent="1" source="4U4nR3mQbKCSGT5FO5ts-88">
          <mxGeometry width="50" height="50" relative="1" as="geometry">
            <mxPoint x="20" y="710" as="sourcePoint" />
            <mxPoint x="-160" y="870" as="targetPoint" />
          </mxGeometry>
        </mxCell>
        <mxCell id="4U4nR3mQbKCSGT5FO5ts-90" value="" style="triangle;whiteSpace=wrap;html=1;rotation=-90;" vertex="1" parent="1">
          <mxGeometry x="-330" y="1342.5" width="60" height="80" as="geometry" />
        </mxCell>
        <mxCell id="4U4nR3mQbKCSGT5FO5ts-91" value="monitor" style="rounded=0;whiteSpace=wrap;html=1;" vertex="1" parent="1">
          <mxGeometry x="-360" y="1307.5" width="120" height="60" as="geometry" />
        </mxCell>
        <mxCell id="4U4nR3mQbKCSGT5FO5ts-92" value="" style="endArrow=classic;html=1;rounded=0;exitX=0;exitY=0.5;exitDx=0;exitDy=0;entryX=1;entryY=0.5;entryDx=0;entryDy=0;" edge="1" parent="1" target="4U4nR3mQbKCSGT5FO5ts-91">
          <mxGeometry width="50" height="50" relative="1" as="geometry">
            <mxPoint x="-160" y="1337.5" as="sourcePoint" />
            <mxPoint x="70" y="1367.5" as="targetPoint" />
          </mxGeometry>
        </mxCell>
        <mxCell id="4U4nR3mQbKCSGT5FO5ts-131" value="" style="rounded=1;whiteSpace=wrap;html=1;" vertex="1" parent="1">
          <mxGeometry x="250" y="1120" width="330" height="440" as="geometry" />
        </mxCell>
        <mxCell id="4U4nR3mQbKCSGT5FO5ts-132" value="Socket" style="rounded=1;whiteSpace=wrap;html=1;" vertex="1" parent="1">
          <mxGeometry x="510" y="1290" width="120" height="100" as="geometry" />
        </mxCell>
        <mxCell id="4U4nR3mQbKCSGT5FO5ts-133" value="" style="endArrow=classic;html=1;rounded=0;exitX=1;exitY=0.25;exitDx=0;exitDy=0;" edge="1" parent="1" source="4U4nR3mQbKCSGT5FO5ts-132">
          <mxGeometry width="50" height="50" relative="1" as="geometry">
            <mxPoint x="640" y="1410" as="sourcePoint" />
            <mxPoint x="710" y="1315" as="targetPoint" />
          </mxGeometry>
        </mxCell>
        <mxCell id="4U4nR3mQbKCSGT5FO5ts-134" value="" style="endArrow=classic;html=1;rounded=0;entryX=1;entryY=0.75;entryDx=0;entryDy=0;" edge="1" parent="1" target="4U4nR3mQbKCSGT5FO5ts-132">
          <mxGeometry width="50" height="50" relative="1" as="geometry">
            <mxPoint x="710" y="1365" as="sourcePoint" />
            <mxPoint x="720" y="1325" as="targetPoint" />
          </mxGeometry>
        </mxCell>
        <mxCell id="4U4nR3mQbKCSGT5FO5ts-135" value="Receiver" style="ellipse;whiteSpace=wrap;html=1;aspect=fixed;" vertex="1" parent="1">
          <mxGeometry x="390" y="1400" width="80" height="80" as="geometry" />
        </mxCell>
        <mxCell id="4U4nR3mQbKCSGT5FO5ts-136" value="Sender" style="ellipse;whiteSpace=wrap;html=1;aspect=fixed;" vertex="1" parent="1">
          <mxGeometry x="390" y="1200" width="80" height="80" as="geometry" />
        </mxCell>
        <mxCell id="4U4nR3mQbKCSGT5FO5ts-137" value="" style="group" vertex="1" connectable="0" parent="1">
          <mxGeometry x="230" y="1210" width="120" height="60" as="geometry" />
        </mxCell>
        <mxCell id="4U4nR3mQbKCSGT5FO5ts-138" value="" style="rounded=0;whiteSpace=wrap;html=1;" vertex="1" parent="4U4nR3mQbKCSGT5FO5ts-137">
          <mxGeometry width="120" height="60" as="geometry" />
        </mxCell>
        <mxCell id="4U4nR3mQbKCSGT5FO5ts-139" value="" style="rounded=0;whiteSpace=wrap;html=1;" vertex="1" parent="4U4nR3mQbKCSGT5FO5ts-137">
          <mxGeometry width="20" height="60" as="geometry" />
        </mxCell>
        <mxCell id="4U4nR3mQbKCSGT5FO5ts-140" value="" style="rounded=0;whiteSpace=wrap;html=1;" vertex="1" parent="4U4nR3mQbKCSGT5FO5ts-137">
          <mxGeometry x="20" width="20" height="60" as="geometry" />
        </mxCell>
        <mxCell id="4U4nR3mQbKCSGT5FO5ts-141" value="" style="rounded=0;whiteSpace=wrap;html=1;" vertex="1" parent="4U4nR3mQbKCSGT5FO5ts-137">
          <mxGeometry x="40" width="20" height="60" as="geometry" />
        </mxCell>
        <mxCell id="4U4nR3mQbKCSGT5FO5ts-142" value="" style="rounded=0;whiteSpace=wrap;html=1;" vertex="1" parent="4U4nR3mQbKCSGT5FO5ts-137">
          <mxGeometry x="60" width="20" height="60" as="geometry" />
        </mxCell>
        <mxCell id="4U4nR3mQbKCSGT5FO5ts-143" value="" style="rounded=0;whiteSpace=wrap;html=1;" vertex="1" parent="4U4nR3mQbKCSGT5FO5ts-137">
          <mxGeometry x="80" width="20" height="60" as="geometry" />
        </mxCell>
        <mxCell id="4U4nR3mQbKCSGT5FO5ts-144" value="" style="rounded=0;whiteSpace=wrap;html=1;" vertex="1" parent="4U4nR3mQbKCSGT5FO5ts-137">
          <mxGeometry x="100" width="20" height="60" as="geometry" />
        </mxCell>
        <mxCell id="4U4nR3mQbKCSGT5FO5ts-145" value="" style="group" vertex="1" connectable="0" parent="1">
          <mxGeometry x="230" y="1410" width="120" height="60" as="geometry" />
        </mxCell>
        <mxCell id="4U4nR3mQbKCSGT5FO5ts-146" value="" style="rounded=0;whiteSpace=wrap;html=1;" vertex="1" parent="4U4nR3mQbKCSGT5FO5ts-145">
          <mxGeometry width="120" height="60" as="geometry" />
        </mxCell>
        <mxCell id="4U4nR3mQbKCSGT5FO5ts-147" value="" style="rounded=0;whiteSpace=wrap;html=1;" vertex="1" parent="4U4nR3mQbKCSGT5FO5ts-145">
          <mxGeometry width="20" height="60" as="geometry" />
        </mxCell>
        <mxCell id="4U4nR3mQbKCSGT5FO5ts-148" value="" style="rounded=0;whiteSpace=wrap;html=1;" vertex="1" parent="4U4nR3mQbKCSGT5FO5ts-145">
          <mxGeometry x="20" width="20" height="60" as="geometry" />
        </mxCell>
        <mxCell id="4U4nR3mQbKCSGT5FO5ts-149" value="" style="rounded=0;whiteSpace=wrap;html=1;" vertex="1" parent="4U4nR3mQbKCSGT5FO5ts-145">
          <mxGeometry x="40" width="20" height="60" as="geometry" />
        </mxCell>
        <mxCell id="4U4nR3mQbKCSGT5FO5ts-150" value="" style="rounded=0;whiteSpace=wrap;html=1;" vertex="1" parent="4U4nR3mQbKCSGT5FO5ts-145">
          <mxGeometry x="60" width="20" height="60" as="geometry" />
        </mxCell>
        <mxCell id="4U4nR3mQbKCSGT5FO5ts-151" value="" style="rounded=0;whiteSpace=wrap;html=1;" vertex="1" parent="4U4nR3mQbKCSGT5FO5ts-145">
          <mxGeometry x="80" width="20" height="60" as="geometry" />
        </mxCell>
        <mxCell id="4U4nR3mQbKCSGT5FO5ts-152" value="" style="rounded=0;whiteSpace=wrap;html=1;" vertex="1" parent="4U4nR3mQbKCSGT5FO5ts-145">
          <mxGeometry x="100" width="20" height="60" as="geometry" />
        </mxCell>
        <mxCell id="4U4nR3mQbKCSGT5FO5ts-155" value="" style="endArrow=classic;html=1;rounded=0;exitX=1;exitY=0.5;exitDx=0;exitDy=0;entryX=0;entryY=0.5;entryDx=0;entryDy=0;" edge="1" parent="1" source="4U4nR3mQbKCSGT5FO5ts-144" target="4U4nR3mQbKCSGT5FO5ts-136">
          <mxGeometry width="50" height="50" relative="1" as="geometry">
            <mxPoint x="180" y="1250" as="sourcePoint" />
            <mxPoint x="240" y="1250" as="targetPoint" />
          </mxGeometry>
        </mxCell>
        <mxCell id="4U4nR3mQbKCSGT5FO5ts-156" value="" style="endArrow=classic;html=1;rounded=0;exitX=1;exitY=0.5;exitDx=0;exitDy=0;entryX=0;entryY=0;entryDx=0;entryDy=0;" edge="1" parent="1">
          <mxGeometry width="50" height="50" relative="1" as="geometry">
            <mxPoint x="470" y="1250" as="sourcePoint" />
            <mxPoint x="510" y="1300" as="targetPoint" />
          </mxGeometry>
        </mxCell>
        <mxCell id="4U4nR3mQbKCSGT5FO5ts-157" value="" style="endArrow=classic;html=1;rounded=0;entryX=1;entryY=0.5;entryDx=0;entryDy=0;exitX=0;exitY=1;exitDx=0;exitDy=0;" edge="1" parent="1" source="4U4nR3mQbKCSGT5FO5ts-132" target="4U4nR3mQbKCSGT5FO5ts-135">
          <mxGeometry width="50" height="50" relative="1" as="geometry">
            <mxPoint x="520" y="1370" as="sourcePoint" />
            <mxPoint x="180" y="1450" as="targetPoint" />
          </mxGeometry>
        </mxCell>
        <mxCell id="4U4nR3mQbKCSGT5FO5ts-158" value="" style="endArrow=classic;html=1;rounded=0;exitX=0;exitY=0.5;exitDx=0;exitDy=0;entryX=1;entryY=0.5;entryDx=0;entryDy=0;" edge="1" parent="1" source="4U4nR3mQbKCSGT5FO5ts-135" target="4U4nR3mQbKCSGT5FO5ts-152">
          <mxGeometry width="50" height="50" relative="1" as="geometry">
            <mxPoint x="520" y="1415" as="sourcePoint" />
            <mxPoint x="480" y="1450" as="targetPoint" />
          </mxGeometry>
        </mxCell>
        <mxCell id="4U4nR3mQbKCSGT5FO5ts-159" value="ReceiveQueue" style="text;html=1;align=center;verticalAlign=middle;whiteSpace=wrap;rounded=0;" vertex="1" parent="1">
          <mxGeometry x="245" y="1390" width="90" height="30" as="geometry" />
        </mxCell>
        <mxCell id="4U4nR3mQbKCSGT5FO5ts-160" value="SendQueue" style="text;html=1;align=center;verticalAlign=middle;whiteSpace=wrap;rounded=0;" vertex="1" parent="1">
          <mxGeometry x="245" y="1180" width="90" height="30" as="geometry" />
        </mxCell>
        <mxCell id="4U4nR3mQbKCSGT5FO5ts-168" value="" style="endArrow=classic;html=1;rounded=0;exitX=1;exitY=0.5;exitDx=0;exitDy=0;entryX=0;entryY=0.5;entryDx=0;entryDy=0;" edge="1" parent="1" source="4U4nR3mQbKCSGT5FO5ts-86" target="4U4nR3mQbKCSGT5FO5ts-139">
          <mxGeometry width="50" height="50" relative="1" as="geometry">
            <mxPoint x="30" y="830" as="sourcePoint" />
            <mxPoint x="250" y="760" as="targetPoint" />
          </mxGeometry>
        </mxCell>
        <mxCell id="4U4nR3mQbKCSGT5FO5ts-169" value="" style="endArrow=classic;html=1;rounded=0;exitX=0;exitY=0.5;exitDx=0;exitDy=0;entryX=1;entryY=0.5;entryDx=0;entryDy=0;" edge="1" parent="1" source="4U4nR3mQbKCSGT5FO5ts-147" target="4U4nR3mQbKCSGT5FO5ts-87">
          <mxGeometry width="50" height="50" relative="1" as="geometry">
            <mxPoint x="250" y="960" as="sourcePoint" />
            <mxPoint x="30" y="1030" as="targetPoint" />
          </mxGeometry>
        </mxCell>
      </root>
    </mxGraphModel>
  </diagram>
</mxfile>
